<?xml version="1.0" encoding="utf-8"?>
<!-- Generator: Adobe Illustrator 19.2.1, SVG Export Plug-In . SVG Version: 6.00 Build 0)  -->
<svg version="1.1" id="Layer_1" xmlns="http://www.w3.org/2000/svg" xmlns:xlink="http://www.w3.org/1999/xlink" x="0px" y="0px"
	 viewBox="0 0 240 240" style="enable-background:new 0 0 240 240;" xml:space="preserve">
<style type="text/css">
	.circle, .line{fill:none;stroke:#DAA520;stroke-width:2;stroke-miterlimit:10;}
	.dot{fill:#DAA628;}
	.logo{fill:#011C31;}
</style>
<path class="circle" d="M187.7,45.1c20.8,18.3,33.9,45.2,33.9,75c0,55.2-44.8,100-100,100s-100-44.8-100-100s44.8-100,100-100
	c25,0,47.8,9.1,65.3,24.3L187.7,45.1z"/>

<path class="logo" d="M162.5,171.3l-6.5-18.4c3.8-2.9,6-7.3,6-12.2c0-10.6-5-15.3-15.8-15.6l-18-51h-12l-18,51
	c-10.8,0.3-15.8,5-15.8,15.6c0,5,2.2,9.4,6,12.2l-6.5,18.4H97l5-15.3c8.3-1.8,16.9-10.8,16.9-22.7c0-0.2,0-0.3,0-0.5
	c0.9-0.6,2-1,3.1-1c1.3,0,2.5,0.5,3.4,1.2c0,0.1,0,0.2,0,0.3c0,11.9,8.7,21,17,22.7l4.9,15.3H162.5z M122.2,93.9h0.3l10.3,32
	c-0.2,0-0.4,0.1-0.5,0.1h-19.9c-0.2,0-0.3-0.1-0.5-0.1L122.2,93.9z M122.1,129.7c-1.3,0-2.5,0.3-3.6,0.9c-0.4-1.1-1.1-1.9-2-2.6H128
	c-0.9,0.7-1.6,1.6-2,2.8C124.8,130.1,123.5,129.7,122.1,129.7z"/>

<path class="line" d="M21.6,118.2c1-54.3,45.4-98.1,100-98.1c25,0,47.8,9.1,65.3,24.3" id="motionPathOne"/>
<path class="line" d="M210.8,165.3c-16.5,32.5-50.3,54.8-89.2,54.8c-54.8,0-99.3-44.1-100-98.7" id="motionPathTwo"/>
<path class="line" d="M188.8,46.1c20.2,18.3,32.8,44.7,32.8,74c0,15-3.3,29.2-9.2,42" id="motionPathThree"/>

<!-- Here is a red circle which will be moved along the motion path. -->
<circle class="dot" cx="-2" cy="-2" r="3">
	<!-- Define the motion path animation -->
	<animateTransform begin="dot.end" id="pauseOne" dur="3s" type="translate" attributeType="XML" attributeName="transform"/>
  <animateMotion id="dot" dur="0.5s" begin="0; pauseOne.end">
    <mpath xlink:href="#motionPathOne"/>
  </animateMotion>
</circle>

<circle class="dot" cx="-2" cy="-2" r="3">
  <!-- Define the motion path animation -->
	<animateTransform begin="dot.end" id="pauseTwo" dur="3s" type="translate" attributeType="XML" attributeName="transform"/>
	<animateMotion id="dot" dur="0.5s" begin="0; pauseTwo.end">
		 <mpath xlink:href="#motionPathTwo"/>
	</animateMotion>
</circle>

<circle class="dot" cx="-2" cy="-2" r="3">
  <!-- Define the motion path animation -->
	<animateTransform begin="dot.end" id="pauseThree" dur="2s" type="translate" attributeType="XML" attributeName="transform"/>
	<animateMotion id="dot" dur="0.5s" begin="0; pauseThree.end">
		 <mpath xlink:href="#motionPathThree"/>
	</animateMotion>
</circle>
</svg>
