<?xml version="1.0" encoding="utf-8"?>
<!-- Generator: Adobe Illustrator 19.2.1, SVG Export Plug-In . SVG Version: 6.00 Build 0)  -->
<svg version="1.1" id="Layer_1" xmlns="http://www.w3.org/2000/svg" xmlns:xlink="http://www.w3.org/1999/xlink" x="0px" y="0px"
	 viewBox="0 0 240 240" style="enable-background:new 0 0 240 240;" xml:space="preserve">
<style type="text/css">
	.st0{fill:#FFFFFF;}
</style>
<path class="st0" d="M194.1,99.1c-3.8-1.2-10.9-3.2-13.5-3.6c-6.1-1-12.1,1.2-22.7,5.7c-2.5,1.1-8.8,4-16.9,8
	c-15-7.1-37.9-18.1-43-20.7c-7.7-4-11.4-0.2-14.2,0.9c-2.8,1.1-3.4,2.6-1.9,4.2c1.1,1.1,20.4,20.3,30,29.8
	c-10.2,5-20.5,10-28.9,14.1c-7.2-2.7-16.9-6.3-19.8-7.5c-4.8-2-7.5-1.7-9.1-1.1c-1.6,0.6-2.6,1.8-1.4,3.4c0.9,1.2,7.9,9.8,11.6,14.4
	c-0.1,0.1-0.3,0.1-0.4,0.2c-5.1,2.4-2.1,6.5,1.6,6.6c3.7,0.1,18.9-0.3,24.7-1.1c5.8-0.9,11.3-1.6,17.7-4.5
	c6.3-2.9,33.4-15.4,33.4-15.4c11.5-5.3,41.6-19.1,50.6-23.3C200.7,104.8,197.9,100.3,194.1,99.1z"/>
</svg>
