<?xml version="1.0" encoding="utf-8"?>
<!-- Generator: Adobe Illustrator 19.2.1, SVG Export Plug-In . SVG Version: 6.00 Build 0)  -->
<svg version="1.1" id="Layer_1" xmlns="http://www.w3.org/2000/svg" xmlns:xlink="http://www.w3.org/1999/xlink" x="0px" y="0px"
	 viewBox="0 0 400 200" style="enable-background:new 0 0 400 200;" xml:space="preserve">
<style type="text/css">
	.st0{fill:#011C31;}
	.st1{fill:#DAA628;}
</style>
<rect x="306.4" y="74.2" class="st0" width="77.3" height="60.7"/>
<rect x="21.3" y="74.2" class="st0" width="82.7" height="60.7"/>
<path class="st1" d="M175.5,79.4h-41.6c-1.4-2.4-2.8-5-3.5-6.1c-1.5-2.3-3-3.2-8-3.2s-18,0-18,0v68.7c0,0,13,0,18,0s6.5-0.8,8-3.2
	c0.7-1,2-3.4,3.3-5.7h41.8c3.3,0,6-2.7,6-6V85.4C181.5,82.1,178.8,79.4,175.5,79.4z M170.2,115.3c0,2.2-1.8,4-4,4h-10
	c-2.2,0-4-1.8-4-4V94c0-2.2,1.8-4,4-4h10c2.2,0,4,1.8,4,4V115.3z"/>
<path class="st0" d="M298.4,67c0,0-22.4,0-28.4,0c-3.2,0-5.2,0.1-7.1,0.4c-10.4,1-19.4,4.1-28.4,6.4c-9.1,2.3-13,2.9-16.2,2.9
	s-8.2,1.1-8.2,7c0,5.9,0,42.1,0,42.1c0,5.9,5,7,8.2,7s7.2,0.7,16.2,2.9c9,2.3,18,5.3,28.4,6.4c1.8,0.3,3.9,0.4,7.1,0.4
	c6,0,28.4,0,28.4,0c1.1,0,2-0.9,2-2v-0.1V69.1V69C300.4,67.9,299.5,67,298.4,67z"/>
<rect x="300.4" y="74.3" class="st1" width="6" height="60.6"/>
</svg>
