<?xml version="1.0" encoding="utf-8"?>
<!-- Generator: Adobe Illustrator 19.2.1, SVG Export Plug-In . SVG Version: 6.00 Build 0)  -->
<svg version="1.1" id="Layer_1" xmlns="http://www.w3.org/2000/svg" xmlns:xlink="http://www.w3.org/1999/xlink" x="0px" y="0px"
	 viewBox="0 0 840 240" style="enable-background:new 0 0 840 240;" xml:space="preserve">
<style type="text/css">
	.dot{fill:#DAA628;}
	.line{fill:none;stroke:#DAA628;stroke-miterlimit:10;}
	.st2{fill:#FFFFFF;}

	@keyframes dash {
	  from {
	    stroke-dashoffset: 1000;
	  }
	  to {
	    stroke-dashoffset: 2000;
	  }
	}

	.lineOne, .lineTwo, .lineThree, .lineFour {
	  fill:none;
	  stroke:#DAA628;
	  stroke-miterlimit: 10;
	  stroke-dasharray: 1000;
	  stroke-dashoffset: 1000;
	}
	.lineOne {
	  animation: dash 4s linear forwards;
	}

	.lineTwo {
	  animation: dash 2.2s linear forwards;
	}

	.lineThree {
	  animation: dash 1s linear forwards;
	}

	.lineFour {
	  animation: dash 4s linear forwards;
	}

	@keyframes hideshow {
	  0% { opacity: 0; }
	  50% { opacity: 0; }
	  75% { opacity: 1; }
	  100% { opacity: 1; }
	}
</style>

<circle class="dot" cx="13" cy="91.8" r="2"/>
<circle class="dot" cx="73.6" cy="96" r="2"/>
<circle class="dot" cx="109" cy="93" r="2"/>
<circle class="dot" cx="99.6" cy="62.8" r="2"/>
<circle class="dot" cx="346.8" cy="23.5" r="2"/>
<circle class="dot" cx="356.3" cy="34.5" r="2"/>
<circle class="dot" cx="373" cy="29.5" r="2"/>
<circle class="dot" cx="505.6" cy="120" r="2"/>
<circle class="dot" cx="650" cy="211.2" r="2"/>
<circle class="dot" cx="671.3" cy="129.5" r="2"/>
<circle class="dot" cx="678.6" cy="70" r="2"/>
<circle class="dot" cx="743.8" cy="86.2" r="2"/>
<polyline class="lineOne" points="743.8,86.2 678.6,70 671.3,129.5 505.6,120 373,29.5 346.8,23.5 99.6,62.8 73.6,96 13,91.8 "/>
<polyline class="lineTwo" points="346.8,23.5 356.3,34.5 373,29.5 "/>
<polyline class="lineThree" points="73.6,96 109,93 99.6,62.8 "/>
<polyline class="lineFour" points="743.8,86.2 671.3,129.5 650,211.2 505.6,120 "/>

<path class="st2" d="M828.2,39.1c-1.6-0.5-4.5-1.3-5.6-1.5c-2.5-0.4-5,0.5-9.4,2.3c-1,0.5-3.6,1.6-7,3.3c-6.2-2.9-15.6-7.5-17.7-8.5
	c-3.2-1.6-4.7-0.1-5.9,0.4s-1.4,1.1-0.8,1.7c0.5,0.5,8.4,8.4,12.4,12.3c-4.2,2.1-8.5,4.1-11.9,5.8c-3-1.1-7-2.6-8.2-3.1
	c-2-0.8-3.1-0.7-3.8-0.5s-1.1,0.7-0.6,1.4c0.4,0.5,3.3,4,4.8,5.9c0,0-0.1,0-0.2,0.1c-2.1,1-0.9,2.7,0.7,2.7c1.5,0,7.8-0.1,10.2-0.5
	s4.7-0.7,7.3-1.9s13.8-6.3,13.8-6.3c4.7-2.2,17.1-7.9,20.9-9.6C830.9,41.5,829.8,39.6,828.2,39.1z"/>
</svg>
